<svg xmlns="http://www.w3.org/2000/svg" id="logo_globes_sheli_stripes" width="88" height="17.001" viewBox="0 0 88 17.001">
    <defs>
        <style>
            .cls-1{fill:#c00}
        </style>
    </defs>
    <g id="logo_globes_sheli_stripes-2">
        <path id="Combined_Shape_Copy" d="M11.01 16.052a7.454 7.454 0 0 1-.586-2.26c-.171 0-.774.1-1.979.316L8 13.655l1.832-.542a3.507 3.507 0 0 0 .445-.09c.34-.1.4-.252.543-.586l.068-.161.684-1.309a17.176 17.176 0 0 1 1.515-2.35C14.833 6.216 16.436 5 17.851 5A1.2 1.2 0 0 1 19 6.31c0 .875-.832 2.153-2.486 3.8-1.633 1.623-2.912 2.533-3.91 2.78a2.1 2.1 0 0 0-.464.158l-.709.411a5.985 5.985 0 0 0-.1 1.129 1.365 1.365 0 0 0 .318.95 1.193 1.193 0 0 0 .946.452h.005a4.179 4.179 0 0 0 2.615-1.22l2.248-2.034c.417.091.611.249.611.5 0 .153-.233.462-.733.971-.209.221-.429.436-.644.644-.114.111-.226.219-.334.328a8.644 8.644 0 0 1-1.712 1.171 4.532 4.532 0 0 1-1.98.655 1.769 1.769 0 0 1-1.661-.953zM14.169 8.5a14.812 14.812 0 0 0-2.3 3.865 12.057 12.057 0 0 0 3.641-2.643c1.621-1.526 2.443-2.682 2.443-3.435 0-.231-.1-.338-.318-.338-.97.001-2.105.835-3.466 2.551zM2 16.415a7.275 7.275 0 0 1 1.15-2.554c.322-.484.781-1.224 1.4-2.209q.242-.4 1.862-3.671l1.15-2.235 1.567-3.592A3.535 3.535 0 0 1 12.3 0 2.051 2.051 0 0 1 14 2.1a5.012 5.012 0 0 1-1.27 3.351 13.24 13.24 0 0 1 .209-1.436l.184-1.169.046-.347c0-.983-.391-1.489-1.149-1.489-1.011 0-1.953.985-2.8 2.926l-2.3 5.079h.345a.67.67 0 0 1 .552.4 3.981 3.981 0 0 1-.229 1.065l-.325-.08a.489.489 0 0 0-.138-.32 18.988 18.988 0 0 0-2.275 3.141c-.252.4-.9 1.572-1.93 3.487a.808.808 0 0 1-.689.292.735.735 0 0 1-.231-.585zm-.906-6.481Q1.4 9.2 2.16 7.762A4.627 4.627 0 0 1 3.994 6 6.9 6.9 0 0 1 5 6.362a11.8 11.8 0 0 0-1.3 1.322L2.308 9.416 0 12z"/>
        <g id="logo_70_17" transform="translate(23)">
            <g id="ס" transform="translate(0 4.001)">
                <path id="Path_1" d="M5.273 0H.352C.157 0 0 .224 0 .5s.157.5.352.5h4.921c.194 0 .352-.224.352-.5S5.468 0 5.273 0z" class="cls-1" transform="translate(0 4)"/>
                <path id="Path_2" d="M5.273 0H.352C.157 0 0 .224 0 .5s.157.5.352.5h4.921c.194 0 .352-.224.352-.5S5.468 0 5.273 0z" class="cls-1" transform="translate(0 6)"/>
                <path id="Path_3" d="M5.273 0H.352C.157 0 0 .224 0 .5s.157.5.352.5h4.921c.194 0 .352-.224.352-.5S5.468 0 5.273 0z" class="cls-1" transform="translate(0 8)"/>
                <path id="Path_6" d="M14.625 0H.375C.168 0 0 .224 0 .5s.168.5.375.5h14.25C14.832 1 15 .776 15 .5s-.168-.5-.375-.5z" class="cls-1"/>
                <path id="Path_7" d="M14.625 0H.375C.168 0 0 .224 0 .5s.168.5.375.5h14.25C14.832 1 15 .776 15 .5s-.168-.5-.375-.5z" class="cls-1" transform="translate(0 2)"/>
                <path id="Path_8" d="M5.273 0H.352C.157 0 0 .224 0 .5s.157.5.352.5h4.921c.194 0 .352-.224.352-.5S5.468 0 5.273 0z" class="cls-1" transform="translate(9.375 4)"/>
                <path id="Path_9" d="M5.273 0H.352C.157 0 0 .224 0 .5s.157.5.352.5h4.921c.194 0 .352-.224.352-.5S5.468 0 5.273 0z" class="cls-1" transform="translate(9.375 6)"/>
                <path id="Path_10" d="M5.273 0H.352C.157 0 0 .224 0 .5s.157.5.352.5h4.921c.194 0 .352-.224.352-.5S5.468 0 5.273 0z" class="cls-1" transform="translate(9.375 8)"/>
                <path id="Path_12" d="M13.632 0H.368C.165 0 0 .224 0 .5s.165.5.368.5h13.264c.2 0 .368-.224.368-.5s-.165-.5-.368-.5z" class="cls-1" transform="translate(0 10)"/>
                <path id="Path_13" d="M12.639 0H.361C.162 0 0 .224 0 .5s.162.5.361.5h12.278c.2 0 .361-.224.361-.5s-.162-.5-.361-.5z" class="cls-1" transform="translate(0 12)"/>
            </g>
            <g id="ב" transform="translate(16 4.001)">
                <path id="Path_16" d="M4.688 0H.313C.14 0 0 .224 0 .5s.14.5.313.5h4.375C4.86 1 5 .776 5 .5S4.86 0 4.688 0z" class="cls-1" transform="translate(8 4)"/>
                <path id="Path_17" d="M4.688 0H.313C.14 0 0 .224 0 .5s.14.5.313.5h4.375C4.86 1 5 .776 5 .5S4.86 0 4.688 0z" class="cls-1" transform="translate(8 6)"/>
                <path id="Path_18" d="M4.688 0H.313C.14 0 0 .224 0 .5s.14.5.313.5h4.375C4.86 1 5 .776 5 .5S4.86 0 4.688 0z" class="cls-1" transform="translate(8 8)"/>
                <path id="Path_20" d="M12.658 0H.342C.153 0 0 .224 0 .5s.153.5.342.5h12.316C12.847 1 13 .776 13 .5s-.153-.5-.342-.5z" class="cls-1"/>
                <path id="Path_21" d="M12.658 0H.342C.153 0 0 .224 0 .5s.153.5.342.5h12.316C12.847 1 13 .776 13 .5s-.153-.5-.342-.5z" class="cls-1" transform="translate(0 2)"/>
                <path id="Path_22" d="M13.667 0H.333C.149 0 0 .224 0 .5s.149.5.333.5h13.334C13.851 1 14 .776 14 .5s-.149-.5-.333-.5z" class="cls-1" transform="translate(0 10)"/>
                <path id="Path_23" d="M13.667 0H.333C.149 0 0 .224 0 .5s.149.5.333.5h13.334C13.851 1 14 .776 14 .5s-.149-.5-.333-.5z" class="cls-1" transform="translate(0 12)"/>
            </g>
            <g id="ו" transform="translate(31 4.001)">
                <path id="Path_27" d="M4.688 0H.313C.14 0 0 .224 0 .5s.14.5.313.5h4.375C4.86 1 5 .776 5 .5S4.86 0 4.688 0z" class="cls-1"/>
                <path id="Path_28" d="M4.688 0H.313C.14 0 0 .224 0 .5s.14.5.313.5h4.375C4.86 1 5 .776 5 .5S4.86 0 4.688 0z" class="cls-1" transform="translate(0 2)"/>
                <path id="Path_29" d="M4.688 0H.313C.14 0 0 .224 0 .5s.14.5.313.5h4.375C4.86 1 5 .776 5 .5S4.86 0 4.688 0z" class="cls-1" transform="translate(0 4)"/>
                <path id="Path_30" d="M4.688 0H.313C.14 0 0 .224 0 .5s.14.5.313.5h4.375C4.86 1 5 .776 5 .5S4.86 0 4.688 0z" class="cls-1" transform="translate(0 6)"/>
                <path id="Path_31" d="M4.688 0H.313C.14 0 0 .224 0 .5s.14.5.313.5h4.375C4.86 1 5 .776 5 .5S4.86 0 4.688 0z" class="cls-1" transform="translate(0 8)"/>
                <path id="Path_32" d="M4.688 0H.313C.14 0 0 .224 0 .5s.14.5.313.5h4.375C4.86 1 5 .776 5 .5S4.86 0 4.688 0z" class="cls-1" transform="translate(0 10)"/>
                <path id="Path_33" d="M4.688 0H.313C.14 0 0 .224 0 .5s.14.5.313.5h4.375C4.86 1 5 .776 5 .5S4.86 0 4.688 0z" class="cls-1" transform="translate(0 12)"/>
            </g>
            <g id="ל" transform="translate(37)">
                <path id="Path_36" d="M5.223 0H.349A.282.282 0 0 0 .1.138.6.6 0 0 0 0 .5a.6.6 0 0 0 .1.364A.282.282 0 0 0 .349 1h4.874a.282.282 0 0 0 .252-.136A.6.6 0 0 0 5.571.5a.6.6 0 0 0-.1-.363A.282.282 0 0 0 5.223 0z" class="cls-1"/>
                <path id="Path_37" d="M5.223 0H.349A.282.282 0 0 0 .1.138.6.6 0 0 0 0 .5a.6.6 0 0 0 .1.364A.282.282 0 0 0 .349 1h4.874a.282.282 0 0 0 .252-.136A.6.6 0 0 0 5.571.5a.6.6 0 0 0-.1-.363A.282.282 0 0 0 5.223 0z" class="cls-1" transform="translate(0 2)"/>
                <path id="Path_38" d="M4.688 0H.313C.14 0 0 .224 0 .5s.14.5.313.5h4.375C4.86 1 5 .776 5 .5S4.86 0 4.688 0z" class="cls-1" transform="translate(8 8.001)"/>
                <path id="Path_39" d="M4.688 0H.313C.14 0 0 .224 0 .5s.14.5.313.5h4.375C4.86 1 5 .776 5 .5S4.86 0 4.688 0z" class="cls-1" transform="translate(8 10.001)"/>
                <path id="Path_40" d="M4.688 0H.313C.14 0 0 .224 0 .5s.14.5.313.5h4.375C4.86 1 5 .776 5 .5S4.86 0 4.688 0z" class="cls-1" transform="translate(8 12.001)"/>
                <path id="Path_43" d="M12.618 0H.382A.453.453 0 0 0 0 .5a.453.453 0 0 0 .382.5h12.236A.453.453 0 0 0 13 .5a.453.453 0 0 0-.382-.5z" class="cls-1" transform="translate(0 4.001)"/>
                <path id="Path_44" d="M12.618 0H.382A.453.453 0 0 0 0 .5a.453.453 0 0 0 .382.5h12.236A.453.453 0 0 0 13 .5a.453.453 0 0 0-.382-.5z" class="cls-1" transform="translate(0 6.001)"/>
                <path id="Path_45" d="M9.643 0H.357C.16 0 0 .224 0 .5s.16.5.357.5h9.286C9.84 1 10 .776 10 .5S9.84 0 9.643 0z" class="cls-1" transform="translate(2 14.001)"/>
                <path id="Path_46" d="M8.625 0H.375C.168 0 0 .224 0 .5s.168.5.375.5h8.25C8.832 1 9 .776 9 .5S8.832 0 8.625 0z" class="cls-1" transform="translate(2 16.001)"/>
            </g>
            <g id="ג" transform="translate(51 4.001)">
                <path id="Path_48" d="M5.25 0H.35C.157 0 0 .224 0 .5s.157.5.35.5h4.9c.193 0 .35-.224.35-.5S5.443 0 5.25 0z" class="cls-1" transform="translate(0 12)"/>
                <path id="Path_49" d="M5.25 0H.35C.157 0 0 .224 0 .5s.157.5.35.5h4.9c.193 0 .35-.224.35-.5S5.443 0 5.25 0z" class="cls-1" transform="translate(0 10)"/>
                <path id="Path_51" d="M4.688 0H.313C.14 0 0 .224 0 .5s.14.5.313.5h4.375C4.86 1 5 .776 5 .5S4.86 0 4.688 0z" class="cls-1" transform="translate(9 12)"/>
                <path id="Path_52" d="M4.688 0H.313C.14 0 0 .224 0 .5s.14.5.313.5h4.375C4.86 1 5 .776 5 .5S4.86 0 4.688 0z" class="cls-1" transform="translate(8 10)"/>
                <path id="Path_53" d="M4.688 0H.313C.14 0 0 .224 0 .5s.14.5.313.5h4.375C4.86 1 5 .776 5 .5S4.86 0 4.688 0z" class="cls-1" transform="translate(6 6)"/>
                <path id="Path_55" d="M4.688 0H.313C.14 0 0 .224 0 .5s.14.5.313.5h4.375C4.86 1 5 .776 5 .5S4.86 0 4.688 0z" class="cls-1" transform="translate(5 4)"/>
                <path id="Path_56" d="M8.625 0H.375C.168 0 0 .224 0 .5s.168.5.375.5h8.25C8.832 1 9 .776 9 .5S8.832 0 8.625 0z" class="cls-1" transform="translate(0 2)"/>
                <path id="Path_57" d="M7.636 0H.364C.163 0 0 .224 0 .5s.163.5.364.5h7.272C7.837 1 8 .776 8 .5S7.837 0 7.636 0z" class="cls-1"/>
                <path id="Path_59" d="M11.625 0H.375C.168 0 0 .224 0 .5s.168.5.375.5h11.25C11.832 1 12 .776 12 .5s-.168-.5-.375-.5z" class="cls-1" transform="translate(0 8)"/>
            </g>
        </g>
    </g>
</svg>
